<svg width="87" height="87" viewBox="0 0 87 87" fill="none" xmlns="http://www.w3.org/2000/svg">
<path d="M87 43.5C87 67.5244 67.5244 87 43.5 87C19.4756 87 0 67.5244 0 43.5C0 19.4756 19.4756 0 43.5 0C67.5244 0 87 19.4756 87 43.5Z" fill="#00C2CB"/>
<path d="M16.2153 71L16.0347 70.4582H14.835L14.6544 71H14.0137L15.0672 67.99H15.8025L16.8603 71H16.2153ZM15.0242 69.9035H15.8498L15.437 68.6737L15.0242 69.9035Z" fill="white"/>
<path d="M20.0636 71H19.3799L18.3049 69.5896V71H17.7115V67.99H18.3049V69.3187L19.3369 67.99H20.0206L18.9069 69.452L20.0636 71Z" fill="white"/>
<path d="M22.9069 67.99V68.5576H22.0942V71H21.5008V68.5576H20.6924V67.99H22.9069Z" fill="white"/>
<path d="M24.3906 70.4324H25.6591V71H23.7972V67.99H25.6376V68.5576H24.3906V69.1983H25.5301V69.7573H24.3906V70.4324Z" fill="white"/>
<path d="M27.7587 67.99C28.0482 67.99 28.2919 68.0875 28.4897 68.2824C28.6875 68.4773 28.7864 68.7167 28.7864 69.0005C28.7864 69.2843 28.6875 69.5237 28.4897 69.7186C28.2919 69.9135 28.0482 70.011 27.7587 70.011H27.2298V71H26.6364V67.99H27.7587ZM27.7587 69.4563C27.8848 69.4563 27.9895 69.4133 28.0726 69.3273C28.1557 69.2384 28.1973 69.1295 28.1973 69.0005C28.1973 68.8686 28.1557 68.7597 28.0726 68.6737C27.9895 68.5877 27.8848 68.5447 27.7587 68.5447H27.2298V69.4563H27.7587Z" fill="white"/>
<path d="M31.1383 71.0602C30.6854 71.0602 30.3113 70.9097 30.016 70.6087C29.7208 70.3077 29.5731 69.9365 29.5731 69.495C29.5731 69.0507 29.7208 68.6794 30.016 68.3813C30.3113 68.0803 30.6854 67.9298 31.1383 67.9298C31.4107 67.9298 31.6615 67.9943 31.8908 68.1233C32.123 68.2494 32.3036 68.4214 32.4326 68.6393L31.9209 68.936C31.8464 68.8013 31.7403 68.6966 31.6027 68.6221C31.4651 68.5447 31.3103 68.506 31.1383 68.506C30.8459 68.506 30.6094 68.5977 30.4288 68.7812C30.2511 68.9647 30.1622 69.2026 30.1622 69.495C30.1622 69.7845 30.2511 70.021 30.4288 70.2045C30.6094 70.388 30.8459 70.4797 31.1383 70.4797C31.3103 70.4797 31.4651 70.4424 31.6027 70.3679C31.7432 70.2905 31.8493 70.1859 31.9209 70.054L32.4326 70.3507C32.3036 70.5686 32.1245 70.742 31.8951 70.871C31.6658 70.9971 31.4135 71.0602 31.1383 71.0602Z" fill="white"/>
<path d="M35.7082 71H35.0245L33.9495 69.5896V71H33.3561V67.99H33.9495V69.3187L34.9815 67.99H35.6652L34.5515 69.452L35.7082 71Z" fill="white"/>
<path d="M38.8372 70.6087C38.5333 70.9097 38.1635 71.0602 37.7278 71.0602C37.2921 71.0602 36.9223 70.9097 36.6184 70.6087C36.3174 70.3048 36.1669 69.9336 36.1669 69.495C36.1669 69.0564 36.3174 68.6866 36.6184 68.3856C36.9223 68.0817 37.2921 67.9298 37.7278 67.9298C38.1635 67.9298 38.5333 68.0817 38.8372 68.3856C39.1411 68.6866 39.293 69.0564 39.293 69.495C39.293 69.9336 39.1411 70.3048 38.8372 70.6087ZM37.0355 70.2045C37.2218 70.388 37.4526 70.4797 37.7278 70.4797C38.003 70.4797 38.2338 70.388 38.4201 70.2045C38.6064 70.0182 38.6996 69.7817 38.6996 69.495C38.6996 69.2083 38.6064 68.9718 38.4201 68.7855C38.2338 68.5992 38.003 68.506 37.7278 68.506C37.4526 68.506 37.2218 68.5992 37.0355 68.7855C36.8492 68.9718 36.756 69.2083 36.756 69.495C36.756 69.7817 36.8492 70.0182 37.0355 70.2045Z" fill="white"/>
<path d="M40.8625 70.4324H42.131V71H40.2691V67.99H42.1095V68.5576H40.8625V69.1983H42.002V69.7573H40.8625V70.4324Z" fill="white"/>
<path d="M46.6772 71L46.4966 70.4582H45.2969L45.1163 71H44.4756L45.5291 67.99H46.2644L47.3222 71H46.6772ZM45.4861 69.9035H46.3117L45.8989 68.6737L45.4861 69.9035Z" fill="white"/>
<path d="M49.8849 67.99V68.5576H48.7669V71H48.1735V67.99H49.8849Z" fill="white"/>
<path d="M51.3667 70.4324H52.6352V71H50.7733V67.99H52.6137V68.5576H51.3667V69.1983H52.5062V69.7573H51.3667V70.4324Z" fill="white"/>
<path d="M55.3239 67.99H55.913V71H55.3239V69.753H54.2059V71H53.6125V67.99H54.2059V69.1854H55.3239V67.99Z" fill="white"/>
<path d="M59.0221 67.99V68.5576H58.2094V71H57.616V68.5576H56.8076V67.99H59.0221Z" fill="white"/>
<path d="M61.1678 71.0602C60.7148 71.0602 60.3407 70.9097 60.0455 70.6087C59.7502 70.3077 59.6026 69.9365 59.6026 69.495C59.6026 69.0507 59.7502 68.6794 60.0455 68.3813C60.3407 68.0803 60.7148 67.9298 61.1678 67.9298C61.4401 67.9298 61.6909 67.9943 61.9203 68.1233C62.1525 68.2494 62.3331 68.4214 62.4621 68.6393L61.9504 68.936C61.8758 68.8013 61.7698 68.6966 61.6322 68.6221C61.4946 68.5447 61.3398 68.506 61.1678 68.506C60.8754 68.506 60.6389 68.5977 60.4583 68.7812C60.2805 68.9647 60.1917 69.2026 60.1917 69.495C60.1917 69.7845 60.2805 70.021 60.4583 70.2045C60.6389 70.388 60.8754 70.4797 61.1678 70.4797C61.3398 70.4797 61.4946 70.4424 61.6322 70.3679C61.7726 70.2905 61.8787 70.1859 61.9504 70.054L62.4621 70.3507C62.3331 70.5686 62.1539 70.742 61.9246 70.871C61.6952 70.9971 61.443 71.0602 61.1678 71.0602Z" fill="white"/>
<path d="M65.3639 67.99V68.5576H64.5512V71H63.9578V68.5576H63.1494V67.99H65.3639Z" fill="white"/>
<path d="M68.0731 69.4391C68.3368 69.591 68.4687 69.8204 68.4687 70.1271C68.4687 70.3822 68.3784 70.5915 68.1978 70.7549C68.0172 70.9183 67.795 71 67.5313 71H66.2542V67.99H67.441C67.699 67.99 67.9154 68.0703 68.0903 68.2308C68.268 68.3885 68.3569 68.5906 68.3569 68.8371C68.3569 69.0865 68.2623 69.2872 68.0731 69.4391ZM67.441 68.5447H66.8476V69.2069H67.441C67.5327 69.2069 67.6087 69.1754 67.6689 69.1123C67.7319 69.0492 67.7635 68.9704 67.7635 68.8758C67.7635 68.7812 67.7334 68.7024 67.6732 68.6393C67.613 68.5762 67.5356 68.5447 67.441 68.5447ZM67.5313 70.4453C67.6316 70.4453 67.7147 70.4123 67.7807 70.3464C67.8466 70.2776 67.8796 70.1916 67.8796 70.0884C67.8796 69.9881 67.8466 69.9049 67.7807 69.839C67.7147 69.7702 67.6316 69.7358 67.5313 69.7358H66.8476V70.4453H67.5313Z" fill="white"/>
<path d="M71.9494 70.6087C71.6455 70.9097 71.2757 71.0602 70.84 71.0602C70.4043 71.0602 70.0345 70.9097 69.7306 70.6087C69.4296 70.3048 69.2791 69.9336 69.2791 69.495C69.2791 69.0564 69.4296 68.6866 69.7306 68.3856C70.0345 68.0817 70.4043 67.9298 70.84 67.9298C71.2757 67.9298 71.6455 68.0817 71.9494 68.3856C72.2533 68.6866 72.4052 69.0564 72.4052 69.495C72.4052 69.9336 72.2533 70.3048 71.9494 70.6087ZM70.1477 70.2045C70.334 70.388 70.5648 70.4797 70.84 70.4797C71.1152 70.4797 71.346 70.388 71.5323 70.2045C71.7186 70.0182 71.8118 69.7817 71.8118 69.495C71.8118 69.2083 71.7186 68.9718 71.5323 68.7855C71.346 68.5992 71.1152 68.506 70.84 68.506C70.5648 68.506 70.334 68.5992 70.1477 68.7855C69.9614 68.9718 69.8682 69.2083 69.8682 69.495C69.8682 69.7817 69.9614 70.0182 70.1477 70.2045Z" fill="white"/>
<path d="M64.7455 16L65.47 32.6635H64.777L64.651 30.868C64.546 29.335 64.105 27.739 63.328 26.08C62.572 24.421 61.606 22.8985 60.43 21.5125C59.254 20.1265 57.8365 18.982 56.1775 18.079C54.5185 17.176 52.828 16.7245 51.106 16.7245H50.224V59.3755H55.138V60.1H32.3005V59.3755H37.183V16.7245H36.3325C34.6105 16.7245 32.92 17.176 31.261 18.079C29.602 18.982 28.174 20.1265 26.977 21.5125C25.78 22.8985 24.8035 24.421 24.0475 26.08C23.2915 27.739 22.8715 29.335 22.7875 30.868L22.693 32.6635H22L22.7245 16H64.7455Z" fill="white"/>
</svg>
