<svg width="87" height="87" viewBox="0 0 87 87" fill="none" xmlns="http://www.w3.org/2000/svg">
<path d="M87 43.5C87 67.5244 67.5244 87 43.5 87C19.4756 87 0 67.5244 0 43.5C0 19.4756 19.4756 0 43.5 0C67.5244 0 87 19.4756 87 43.5Z" fill="#00C2CB"/>
<path d="M71.05 15L72 36.9157H71.0913L70.9261 34.5543C70.7884 32.5381 70.2101 30.4391 69.1913 28.2571C68.2 26.0752 66.9333 24.0729 65.3913 22.25C63.8493 20.4271 61.9906 18.9219 59.8152 17.7343C57.6399 16.5467 55.4232 15.9529 53.1652 15.9529H52.0087V72.0471H58.4522V73H28.5065V72.0471H34.9087V15.9529H33.7935C31.5355 15.9529 29.3188 16.5467 27.1435 17.7343C24.9681 18.9219 23.0957 20.4271 21.5261 22.25C19.9565 24.0729 18.6761 26.0752 17.6848 28.2571C16.6935 30.4391 16.1428 32.5381 16.0326 34.5543L15.9087 36.9157H15L15.95 15H71.05Z" fill="white"/>
</svg>
